<svg width="24" height="24" viewBox="0 0 24 24" fill="none" xmlns="http://www.w3.org/2000/svg">
<path d="M16.5625 15.625C17.526 15.651 18.3333 15.9896 18.9844 16.6406C19.6354 17.2917 19.974 18.099 20 19.0625C19.974 20.026 19.6354 20.8333 18.9844 21.4844C18.3333 22.1354 17.526 22.474 16.5625 22.5H3.75C3.69792 22.474 3.3724 22.0833 2.77344 21.3281C2.17448 20.599 1.57552 19.7526 0.976562 18.7891C0.377604 17.8255 0.0520833 16.9792 0 16.25C0.0260417 15.1823 0.390625 14.2969 1.09375 13.5938C1.79688 12.8906 2.68229 12.526 3.75 12.5C4.81771 12.526 5.70312 12.8906 6.40625 13.5938C7.10938 14.2969 7.47396 15.1823 7.5 16.25C7.47396 16.849 7.23958 17.5521 6.79688 18.3594C6.32812 19.1667 5.82031 19.9219 5.27344 20.625H16.5625C17.0052 20.625 17.3698 20.4688 17.6562 20.1562C17.9688 19.8698 18.125 19.5052 18.125 19.0625C18.125 18.6198 17.9688 18.2552 17.6562 17.9688C17.3698 17.6562 17.0052 17.5 16.5625 17.5H12.8125C11.849 17.474 11.0417 17.1354 10.3906 16.4844C9.73958 15.8333 9.40104 15.026 9.375 14.0625C9.40104 13.099 9.73958 12.2917 10.3906 11.6406C11.0417 10.9896 11.849 10.651 12.8125 10.625H14.7266C14.1797 9.92188 13.6719 9.16667 13.2031 8.35938C12.7604 7.55208 12.526 6.84896 12.5 6.25C12.526 5.18229 12.8906 4.29688 13.5938 3.59375C14.2969 2.89062 15.1823 2.52604 16.25 2.5C17.3177 2.52604 18.2031 2.89062 18.9062 3.59375C19.6094 4.29688 19.974 5.18229 20 6.25C19.9479 6.97917 19.6224 7.82552 19.0234 8.78906C18.4245 9.7526 17.8255 10.599 17.2266 11.3281C16.6276 12.0833 16.3021 12.474 16.25 12.5H12.8125C12.3698 12.5 12.0052 12.6562 11.7188 12.9688C11.4062 13.2552 11.25 13.6198 11.25 14.0625C11.25 14.5052 11.4062 14.8698 11.7188 15.1562C12.0052 15.4688 12.3698 15.625 12.8125 15.625H16.5625ZM14.375 6.25C14.401 6.53646 14.5833 6.97917 14.9219 7.57812C15.2604 8.17708 15.7031 8.82812 16.25 9.53125C16.7969 8.82812 17.2396 8.17708 17.5781 7.57812C17.9167 6.97917 18.099 6.53646 18.125 6.25C18.099 5.72917 17.9167 5.28646 17.5781 4.92188C17.2135 4.58333 16.7708 4.40104 16.25 4.375C15.7292 4.40104 15.2865 4.58333 14.9219 4.92188C14.5833 5.28646 14.401 5.72917 14.375 6.25ZM3.75 19.5312C4.29688 18.8021 4.73958 18.138 5.07812 17.5391C5.41667 16.9661 5.59896 16.5365 5.625 16.25C5.59896 15.7292 5.41667 15.2865 5.07812 14.9219C4.71354 14.5833 4.27083 14.401 3.75 14.375C3.22917 14.401 2.78646 14.5833 2.42188 14.9219C2.08333 15.2865 1.90104 15.7292 1.875 16.25C1.90104 16.5365 2.08333 16.9792 2.42188 17.5781C2.76042 18.1771 3.20312 18.8281 3.75 19.5312Z" fill="#34C759"/>
</svg>
